<svg xmlns="http://www.w3.org/2000/svg" width="120" height="120" class="uil-hourglass" preserveAspectRatio="xMidYMid" viewBox="0 0 100 100"><path fill="none" d="M0 0h100v100H0z" class="bk"/><g><path fill="none" stroke="#007282" stroke-miterlimit="10" stroke-width="5" d="M58.4 51.7c-.9-.9-1.4-2-1.4-2.3s.5-.4 1.4-1.4C70.8 43.8 79.8 30.5 80 15.5H20c.2 15 9.2 28.1 21.6 32.3.9.9 1.4 1.2 1.4 1.5s-.5 1.6-1.4 2.5C29.2 56.1 20.2 69.5 20 85.5h60c-.2-16-9.2-29.6-21.6-33.8z" class="glass"/><clipPath id="a"><path d="M15 20h70v25H15z" class="clip"><animate attributeName="height" dur="1s" from="25" keyTimes="0;0.5;1" repeatCount="indefinite" to="0"/><animate attributeName="y" dur="1s" from="20" keyTimes="0;0.5;1" repeatCount="indefinite" to="45"/></path></clipPath><clipPath id="b"><path d="M15 55h70v25H15z" class="clip"><animate attributeName="height" dur="1s" from="0" keyTimes="0;0.5;1" repeatCount="indefinite" to="25"/><animate attributeName="y" dur="1s" from="80" keyTimes="0;0.5;1" repeatCount="indefinite" to="55"/></path></clipPath><path fill="#ffab00" d="M29 23c3.1 11.4 11.3 19.5 21 19.5S67.9 34.4 71 23z" class="sand" clip-path="url(#a)"/><path fill="#ffab00" d="M71.6 78c-3-11.6-11.5-20-21.5-20s-18.5 8.4-21.5 20z" class="sand" clip-path="url(#b)"/><animateTransform attributeName="transform" dur="1s" from="0 50 50" keyTimes="0;0.7;1" repeatCount="indefinite" to="180 50 50" type="rotate" values="0 50 50;0 50 50;180 50 50"/></g></svg>