<svg xmlns="http://www.w3.org/2000/svg" xml:space="preserve" width="70" height="70" viewBox="0 0 232.525 70"><radialGradient id="a" cx="29.432" cy="35" r="32.336" gradientUnits="userSpaceOnUse"><stop offset="0" style="stop-color:#f8861f"/><stop offset="1" style="stop-color:#ff1800"/></radialGradient><path fill="url(#a)" d="M47.532 12.603a8.5 8.5 0 0 0 1.044-4.084C48.577 3.822 44.755 0 40.059 0c-3.993 0-7.353 2.761-8.271 6.474a30 30 0 0 0-2.356-.094C13.177 6.38 0 19.557 0 35.812c0 7.997 3.19 15.246 8.366 20.551a8.48 8.48 0 0 0-1.713 5.118c0 4.698 3.822 8.52 8.521 8.52 3.61 0 6.704-2.259 7.941-5.438 2.035.445 4.149.683 6.317.683 16.255 0 29.432-13.179 29.432-29.433 0-9.431-4.435-17.823-11.332-23.21m-7.475 1.146c-.456 0-.899-.059-1.321-.168L35.21 23.839l5.162-.843-7.269 11.85 6.049-1.471-20.383 24.314a5.23 5.23 0 1 1-1.71-1.084l5.774-12.595-5.634 1.525 9.163-13.113-5.632 1.362 15.968-21.259a5.23 5.23 0 0 1 3.358-9.237 5.23 5.23 0 0 1 5.228 5.229 5.23 5.23 0 0 1-5.227 5.232"/></svg>